<?xml version="1.0" standalone="no"?><!DOCTYPE svg PUBLIC "-//W3C//DTD SVG 1.1//EN" "http://www.w3.org/Graphics/SVG/1.1/DTD/svg11.dtd"><svg class="icon" width="200px" height="200.00px" viewBox="0 0 1024 1024" version="1.1" xmlns="http://www.w3.org/2000/svg"><path fill="#333333" d="M944.17086 874.571712 716.272383 646.289496c50.582025-60.802808 81.065294-138.961912 81.065294-224.292346 0-193.663768-156.732647-350.656335-350.077144-350.656335S97.182366 228.333382 97.182366 421.99715c0 193.661721 156.734694 350.656335 350.07919 350.656335 85.193311 0 163.224502-30.538527 223.926002-81.204463l227.900523 228.284263c6.226818 6.239098 14.383592 9.357112 22.542412 9.357112s16.317641-3.118014 22.540366-9.357112C956.626543 907.269415 956.626543 887.049908 944.17086 874.571712zM447.260533 708.780759c-157.87261 0-286.309818-128.652102-286.309818-286.783609s128.437208-286.781562 286.309818-286.781562c157.870564 0 286.311865 128.650055 286.311865 286.781562S605.13212 708.780759 447.260533 708.780759z" /></svg>