<?xml version="1.0" standalone="no"?><!DOCTYPE svg PUBLIC "-//W3C//DTD SVG 1.1//EN" "http://www.w3.org/Graphics/SVG/1.1/DTD/svg11.dtd"><svg class="icon" width="200px" height="199.80px" viewBox="0 0 1025 1024" version="1.1" xmlns="http://www.w3.org/2000/svg"><path fill="#333333" d="M161.032192 321.855488c-8.45824 0-16.857088 3.479552-22.839296 9.459712-5.976064 5.98016-9.459712 14.385152-9.459712 22.839296 0 8.45824 3.483648 16.863232 9.459712 22.843392 5.98016 5.98016 14.381056 9.465856 22.839296 9.465856 8.456192 0 16.861184-3.483648 22.841344-9.465856 5.976064-5.98016 9.459712-14.385152 9.459712-22.843392 0-8.452096-3.483648-16.857088-9.459712-22.839296C177.893376 325.33504 169.488384 321.855488 161.032192 321.855488zM990.027776 245.813248c-21.614592-13.55776-50.087936-13.55776-78.135296 0l-206.536704 99.751936 0-41.117696c0-61.374464-49.932288-111.304704-111.304704-111.304704L173.08672 193.142784 142.29504 193.142784 111.304704 193.142784c-61.374464 0-111.304704 49.932288-111.304704 111.304704l0 10.000384 0 19.060736 0 360.001536 0 5.042176 0 24.018944c0 61.36832 49.932288 111.304704 111.304704 111.304704l139.599872 0 10.145792 0 333.0048 0c61.36832 0 111.300608-49.932288 111.300608-111.304704l0-40.953856 206.608384 100.665344c14.108672 6.873088 28.315648 10.299392 41.715712 10.299392 13.221888 0 25.64096-3.332096 36.374528-10.057728 21.567488-13.514752 33.943552-39.133184 33.943552-70.324224L1023.997952 316.178432C1023.997952 285.014016 1011.601408 259.371008 990.027776 245.813248zM660.832256 722.571264c0 36.820992-29.958144 66.783232-66.783232 66.783232L250.898432 789.354496 111.29856 789.354496c-36.820992 0-66.779136-29.968384-66.779136-66.783232l0-24.0128L44.519424 314.451968l0-10.00448c0-36.814848 29.958144-66.783232 66.779136-66.783232l30.99648 0 30.79168 0 420.962304 0c36.820992 0 66.783232 29.968384 66.783232 66.783232L660.832256 722.571264zM979.47648 712.204288c0 15.49312-4.763648 27.355136-13.043712 32.54272-8.331264 5.163008-21.059584 4.2496-34.973696-2.51904l-226.105344-110.17216L705.353728 394.98752l225.886208-109.084672c13.955072-6.715392 26.7776-7.612416 35.098624-2.377728 8.351744 5.230592 13.13792 17.14176 13.13792 32.653312L979.47648 712.204288z" /></svg>